<svg width="20" height="20" viewBox="0 0 20 20" fill="none" xmlns="http://www.w3.org/2000/svg">
<path d="M16.5 14.8C15.8 14.8 15.3 14.2 15.3 13.6C15.3 12.9 15.9 12.4 16.5 12.4C17.1 12.4 17.7 13 17.7 13.6C17.8 14.2 17.2 14.8 16.5 14.8ZM16.5 10C14.6 10 13 11.6 13 13.5C13 16.1 16.5 20 16.5 20C16.5 20 20 16.1 20 13.5C20 11.6 18.4 10 16.5 10ZM7 0L5 2H2C0.9 2 0 2.9 0 4V16C0 17.1 0.9 18 2 18H12.5C11.9 17.1 11.4 16.1 11.1 14.9C10.8 15 10.4 15 10 15C7.2 15 5 12.8 5 10C5 7.2 7.2 5 10 5C12.1 5 14 6.3 14.7 8.3C15.3 8.1 15.9 8 16.5 8C17.8 8 19 8.5 20 9.3V4C20 2.9 19.1 2 18 2H15L13 0H7ZM9.9 7C8.3 7 7 8.4 7 10C7 11.7 8.3 13 10 13C10.4 13 10.7 12.9 11 12.8C11.2 11.4 11.9 10.2 12.9 9.3C12.6 8 11.4 7 9.9 7C10 7 10 7 9.9 7Z" fill="#DA26EA"/>
</svg>
