<svg width="45" height="37" viewBox="0 0 45 37" fill="none" xmlns="http://www.w3.org/2000/svg">
<path d="M22.5 0C19.5453 0 16.6194 0.490397 13.8896 1.44319C11.1598 2.39598 8.67942 3.79252 6.5901 5.55305C2.37053 9.10861 0 13.931 0 18.9593C0 27.3393 6.4575 34.449 15.39 36.9706C16.515 37.1223 16.875 36.5346 16.875 36.0227C16.875 35.5866 16.875 34.3922 16.875 32.8185C10.6425 33.9561 9.315 30.278 9.315 30.278C8.28 28.0787 6.8175 27.491 6.8175 27.491C4.77 26.3155 6.975 26.3534 6.975 26.3534C9.225 26.4861 10.4175 28.3062 10.4175 28.3062C12.375 31.188 15.6825 30.3349 16.965 29.8799C17.1675 28.6475 17.7525 27.8133 18.3825 27.3393C13.3875 26.8653 8.145 25.2348 8.145 18.0113C8.145 15.9069 9 14.2195 10.4625 12.8734C10.2375 12.3994 9.45 10.4276 10.6875 7.86811C10.6875 7.86811 12.5775 7.35621 16.875 9.80196C18.6525 9.38485 20.5875 9.1763 22.5 9.1763C24.4125 9.1763 26.3475 9.38485 28.125 9.80196C32.4225 7.35621 34.3125 7.86811 34.3125 7.86811C35.55 10.4276 34.7625 12.3994 34.5375 12.8734C36 14.2195 36.855 15.9069 36.855 18.0113C36.855 25.2538 31.59 26.8464 26.5725 27.3204C27.3825 27.9081 28.125 29.0646 28.125 30.8278C28.125 33.3684 28.125 35.416 28.125 36.0227C28.125 36.5346 28.485 37.1413 29.6325 36.9706C38.565 34.4301 45 27.3393 45 18.9593C45 16.4695 44.418 14.0041 43.2873 11.7039C42.1566 9.40364 40.4992 7.31358 38.4099 5.55305C36.3206 3.79252 33.8402 2.39598 31.1104 1.44319C28.3806 0.490397 25.4547 0 22.5 0Z" fill="black"/>
</svg>
