<svg width="45" height="37" viewBox="0 0 45 37" fill="none" xmlns="http://www.w3.org/2000/svg">
<path d="M40 0C41.3261 0 42.5979 0.433134 43.5355 1.20412C44.4732 1.9751 45 3.02078 45 4.11111V32.8889C45 33.9792 44.4732 35.0249 43.5355 35.7959C42.5979 36.5669 41.3261 37 40 37H5C3.67392 37 2.40215 36.5669 1.46447 35.7959C0.526784 35.0249 0 33.9792 0 32.8889V4.11111C0 3.02078 0.526784 1.9751 1.46447 1.20412C2.40215 0.433134 3.67392 0 5 0H40ZM38.75 31.8611V20.9667C38.75 19.1894 37.8913 17.485 36.3629 16.2283C34.8345 14.9716 32.7615 14.2656 30.6 14.2656C28.475 14.2656 26 15.3344 24.8 16.9378V14.6561H17.825V31.8611H24.8V21.7272C24.8 20.1444 26.35 18.8494 28.275 18.8494C29.2033 18.8494 30.0935 19.1526 30.7499 19.6923C31.4063 20.232 31.775 20.964 31.775 21.7272V31.8611H38.75ZM9.7 11.4289C10.8139 11.4289 11.8822 11.0651 12.6698 10.4174C13.4575 9.76981 13.9 8.89144 13.9 7.97556C13.9 6.06389 12.025 4.50167 9.7 4.50167C8.57946 4.50167 7.50482 4.86766 6.71247 5.51915C5.92013 6.17063 5.475 7.05422 5.475 7.97556C5.475 9.88722 7.375 11.4289 9.7 11.4289ZM13.175 31.8611V14.6561H6.25V31.8611H13.175Z" fill="#1C1A9B"/>
</svg>
